# xmcd CD database file
#
# Track frame offsets:
#	150
#	18976
#	40952
#	60903
#	84154
#	106430
#	130731
#	150607
#	172133
#	183158
#	215709
#	235735
#
# Disc length: 3202 seconds
#
# Revision: 0
# Processed by: cddbd v1.5.2PL0 Copyright (c) Steve Scherf et al.
# Submitted via: CDex 1.70beta2
#
DISCID=940c800c
DTITLE=Philip Bölter - Live Your Live
DYEAR=2005
DGENRE=Blues
TTITLE0=Outsider
TTITLE1=Life
TTITLE2=Contract Of Eternity
TTITLE3=Opera Bird
TTITLE4=Moonlight Walker
TTITLE5=Highway
TTITLE6=Fire In Mind
TTITLE7=Soldier
TTITLE8=On The Way For Justice
TTITLE9=Neighborhood
TTITLE10=Takes A Long Time
TTITLE11=#
EXTD=YEAR: 2005
EXTT0=
EXTT1=
EXTT2=
EXTT3=
EXTT4=
EXTT5=
EXTT6=
EXTT7=
EXTT8=
EXTT9=
EXTT10=
EXTT11=
PLAYORDER=
